<?xml version="1.0" encoding="UTF-8" standalone="no"?><!DOCTYPE svg PUBLIC "-//W3C//DTD SVG 1.1//EN" "http://www.w3.org/Graphics/SVG/1.1/DTD/svg11.dtd"><svg width="100%" height="100%" viewBox="0 0 2159 1775" version="1.1" xmlns="http://www.w3.org/2000/svg" xmlns:xlink="http://www.w3.org/1999/xlink" xml:space="preserve" xmlns:serif="http://www.serif.com/" style="fill-rule:evenodd;clip-rule:evenodd;stroke-linejoin:round;stroke-miterlimit:2;"><path d="M771.088,1.773l1001.26,-0c54.756,-0 106.858,11.452 154.039,32.091c88.778,38.834 160.135,110.19 198.968,198.968c20.639,47.181 32.092,99.284 32.092,154.039l-0,231.06c-0,54.756 -11.453,106.858 -32.092,154.039c-38.833,88.778 -110.19,160.135 -198.968,198.969c-47.181,20.638 -99.283,32.091 -154.039,32.091c-11.012,-0 -21.916,-0.463 -32.694,-1.371c0.201,0.456 0.402,0.913 0.603,1.371c20.638,47.181 32.091,99.283 32.091,154.039l-0,231.06c-0,54.755 -11.453,106.858 -32.091,154.039c-38.834,88.778 -110.191,160.134 -198.969,198.968c-47.181,20.639 -99.283,32.091 -154.039,32.091l-1001.26,0c-54.756,0 -106.858,-11.452 -154.04,-32.091c-88.778,-38.834 -160.134,-110.19 -198.968,-198.968c-20.639,-47.181 -32.091,-99.284 -32.091,-154.039l-0,-231.06c-0,-54.756 11.452,-106.858 32.091,-154.039c38.834,-88.778 110.19,-160.135 198.968,-198.969c47.182,-20.638 99.284,-32.091 154.04,-32.091c11.011,0 21.915,0.463 32.694,1.371c-0.202,-0.456 -0.403,-0.913 -0.603,-1.371c-20.639,-47.181 -32.091,-99.283 -32.091,-154.039l-0,-231.06c-0,-54.755 11.452,-106.858 32.091,-154.039c38.834,-88.778 110.19,-160.134 198.968,-198.968c47.182,-20.639 99.284,-32.091 154.04,-32.091Zm1001.26,231.059l-1001.26,-0c-85.017,-0 -154.04,69.023 -154.04,154.039l-0,231.06c-0,85.017 69.023,154.039 154.04,154.039l1001.26,0c85.016,0 154.039,-69.022 154.039,-154.039l0,-231.06c0,-85.016 -69.023,-154.039 -154.039,-154.039Zm-1386.36,1309.34l1001.26,0c85.017,0 154.039,-69.023 154.039,-154.039l0,-231.06c0,-85.017 -69.022,-154.039 -154.039,-154.039l-616.158,-0c-0.846,-0 -1.693,0.005 -2.537,-0c-10.151,-0.066 -29.555,-0 -29.555,-0l-353.007,-0c-85.017,-0 -154.04,69.022 -154.04,154.039l0,231.06c0,85.016 69.023,154.039 154.04,154.039Z" style="fill:#c6ff42;"/></svg>